<svg xmlns="http://www.w3.org/2000/svg" width="616.871" height="252.984" viewBox="0 0 616.871 252.984">
  <g id="Artwork_15" data-name="Artwork 15" transform="translate(308.436 126.492)">
    <g id="Group_26149" data-name="Group 26149" transform="translate(-307.596 -125.653)">
      <path id="Path_11601" data-name="Path 11601" d="M67.51,60.012h1.226a.808.808,0,0,0,.48-.093c.071-.062.107-.217.107-.466V58.227c0-.248-.036-.4-.107-.466a.808.808,0,0,0-.48-.093H67.51a.8.8,0,0,0-.493.093.737.737,0,0,0-.093.466v1.226a.737.737,0,0,0,.093.466.8.8,0,0,0,.493.093m-14.654,0h1.226a.8.8,0,0,0,.493-.093.737.737,0,0,0,.093-.466V58.227a.737.737,0,0,0-.093-.466.8.8,0,0,0-.493-.093H52.856a.808.808,0,0,0-.48.093c-.071.062-.107.217-.107.466v1.226c0,.248.036.4.107.466a.808.808,0,0,0,.48.093m0-7.221h1.226a.8.8,0,0,0,.493-.093.74.74,0,0,0,.093-.467V51.006a.737.737,0,0,0-.093-.466.793.793,0,0,0-.493-.094H52.856a.8.8,0,0,0-.48.094c-.071.062-.107.217-.107.466v1.226c0,.248.036.4.107.467a.808.808,0,0,0,.48.093m14.654,0h1.226a.808.808,0,0,0,.48-.093c.071-.062.107-.218.107-.467V51.006c0-.248-.036-.4-.107-.466a.8.8,0,0,0-.48-.094H67.51a.793.793,0,0,0-.493.094.737.737,0,0,0-.093.466v1.226a.74.74,0,0,0,.093.467.8.8,0,0,0,.493.093m0-7.221h1.226a.8.8,0,0,0,.48-.094c.071-.062.107-.217.107-.466V43.786c0-.249-.036-.4-.107-.467a.808.808,0,0,0-.48-.093H67.51a.8.8,0,0,0-.493.093.739.739,0,0,0-.093.467v1.226a.737.737,0,0,0,.093.466.793.793,0,0,0,.493.094m7.327,7.221h1.226a.8.8,0,0,0,.493-.093.74.74,0,0,0,.093-.467V51.006a.737.737,0,0,0-.093-.466.793.793,0,0,0-.493-.094H74.837a.8.8,0,0,0-.479.094q-.107.093-.107.466v1.226c0,.248.035.4.107.467a.807.807,0,0,0,.479.093m0-7.221h1.226a.793.793,0,0,0,.493-.094.737.737,0,0,0,.093-.466V43.786a.739.739,0,0,0-.093-.467.8.8,0,0,0-.493-.093H74.837a.807.807,0,0,0-.479.093q-.107.093-.107.467v1.226q0,.373.107.466a.8.8,0,0,0,.479.094M60.183,60.012h1.226a.8.8,0,0,0,.493-.093.737.737,0,0,0,.093-.466V58.227a.737.737,0,0,0-.093-.466.8.8,0,0,0-.493-.093H60.183a.8.8,0,0,0-.493.093.737.737,0,0,0-.093.466v1.226a.737.737,0,0,0,.093.466.8.8,0,0,0,.493.093m0-14.441h1.226a.793.793,0,0,0,.493-.094.737.737,0,0,0,.093-.466V43.786a.739.739,0,0,0-.093-.467.8.8,0,0,0-.493-.093H60.183a.8.8,0,0,0-.493.093.739.739,0,0,0-.093.467v1.226a.737.737,0,0,0,.093.466.792.792,0,0,0,.493.094m0,7.221h1.226A.8.8,0,0,0,61.9,52.7a.74.74,0,0,0,.093-.467V51.006a.737.737,0,0,0-.093-.466.793.793,0,0,0-.493-.094H60.183a.792.792,0,0,0-.493.094.737.737,0,0,0-.093.466v1.226a.74.74,0,0,0,.093.467.8.8,0,0,0,.493.093M49.525,64.942a3.807,3.807,0,0,1-4.29-4.29V42.613a4.406,4.406,0,0,1,1.079-3.224A4.327,4.327,0,0,1,49.525,38.3h29.9a3.869,3.869,0,0,1,4.29,4.316V60.652a4.266,4.266,0,0,1-1.119,3.211,4.384,4.384,0,0,1-3.171,1.079Zm-.027,1.2H79.448a5.468,5.468,0,0,0,4.077-1.412,5.546,5.546,0,0,0,1.385-4.05V34.912a5.5,5.5,0,0,0-1.385-4.037,5.5,5.5,0,0,0-4.077-1.4H49.5a5.527,5.527,0,0,0-4.077,1.386,5.487,5.487,0,0,0-1.385,4.049V60.679A4.871,4.871,0,0,0,49.5,66.141" transform="translate(-7.911 -5.573)" fill="#fff"/>
      <path id="Path_11602" data-name="Path 11602" d="M15.185,1A13.924,13.924,0,0,0,1,14.649V238.656a13.926,13.926,0,0,0,14.185,13.65H602.006a13.926,13.926,0,0,0,14.186-13.65V14.649A13.925,13.925,0,0,0,602.006,1Z" transform="translate(-1 -1)" fill="none" stroke="#fff" stroke-width="1.679"/>
      <g id="Group_26146" data-name="Group 26146" transform="translate(567.834 19.86)">
        <path id="Path_11603" data-name="Path 11603" d="M689.139,47.993a11.206,11.206,0,0,0,4.508-.91,11.732,11.732,0,0,0,3.72-2.528,11.956,11.956,0,0,0,2.527-3.728,11.46,11.46,0,0,0,0-8.986,12.009,12.009,0,0,0-6.262-6.255,11.585,11.585,0,0,0-9,0,11.622,11.622,0,0,0-3.713,2.528,12.005,12.005,0,0,0-2.521,3.727,11.46,11.46,0,0,0,0,8.986,11.946,11.946,0,0,0,2.528,3.728,11.711,11.711,0,0,0,3.719,2.528A11.235,11.235,0,0,0,689.139,47.993Z" transform="translate(-677.464 -24.66)" fill="none" stroke="#fff" stroke-width="1.078"/>
        <path id="Path_11604" data-name="Path 11604" d="M686.412,42.225a.4.4,0,0,1-.288-.109.346.346,0,0,1-.117-.264.434.434,0,0,1,.14-.311l3.828-3.828-3.828-3.828a.432.432,0,0,1-.14-.311.323.323,0,0,1,.117-.257.422.422,0,0,1,.288-.1.47.47,0,0,1,.311.14l3.8,3.813,3.812-3.813a.41.41,0,0,1,.6-.047.349.349,0,0,1,.117.265.432.432,0,0,1-.14.311l-3.828,3.828,3.828,3.828a.433.433,0,0,1,.14.311.346.346,0,0,1-.117.264.4.4,0,0,1-.288.109.414.414,0,0,1-.311-.155l-3.812-3.813-3.8,3.813a.45.45,0,0,1-.311.155" transform="translate(-678.836 -26.031)" fill="#fff"/>
        <path id="Path_11605" data-name="Path 11605" d="M686.412,42.225a.4.4,0,0,1-.288-.109.346.346,0,0,1-.117-.264.434.434,0,0,1,.14-.311l3.828-3.828-3.828-3.828a.432.432,0,0,1-.14-.311.323.323,0,0,1,.117-.257.422.422,0,0,1,.288-.1.47.47,0,0,1,.311.14l3.8,3.813,3.812-3.813a.41.41,0,0,1,.6-.047.349.349,0,0,1,.117.265.432.432,0,0,1-.14.311l-3.828,3.828,3.828,3.828a.433.433,0,0,1,.14.311.346.346,0,0,1-.117.264.4.4,0,0,1-.288.109.414.414,0,0,1-.311-.155l-3.812-3.813-3.8,3.813A.45.45,0,0,1,686.412,42.225Z" transform="translate(-678.836 -26.031)" fill="none" stroke="#fff" stroke-miterlimit="10" stroke-width="0.323"/>
      </g>
      <g id="Group_26147" data-name="Group 26147" transform="translate(36.805 107.998)">
        <path id="Path_11606" data-name="Path 11606" d="M58.492,169.9c-7.062,0-12.443-4.427-12.443-12.33,0-3.644,1.57-7.007,3.363-10.65l8.408-17.263h7.958l-8.294,16.479a7.9,7.9,0,0,1,2.971-.5c5.381,0,10.481,4.428,10.481,11.827C70.935,165.306,65.554,169.9,58.492,169.9Zm0-18.216c-2.97,0-5.157,2.13-5.157,5.829s2.187,5.83,5.157,5.83,5.157-2.13,5.157-5.83C63.648,153.984,61.575,151.686,58.492,151.686Z" transform="translate(-45.039 -129.659)" fill="#fff"/>
        <path id="Path_11607" data-name="Path 11607" d="M106.419,169.566l-2.354-7.062H89.885l-2.411,7.062H79.347l14.517-39.907h6.11l14.573,39.907Zm-9.3-28.137-5.044,14.517h9.921Z" transform="translate(-50.386 -129.659)" fill="#fff"/>
        <path id="Path_11608" data-name="Path 11608" d="M156.27,169.566V146.305l-7.623,15.134h-5.268l-7.68-15.134v23.261h-7.791V129.659h7.679l10.425,21.579,10.37-21.579h7.678v39.907Z" transform="translate(-58.185 -129.659)" fill="#fff"/>
        <path id="Path_11609" data-name="Path 11609" d="M63.063,216.734v32.958H55.272V216.734H44.846v-6.95H73.488v6.95Z" transform="translate(-44.846 -142.526)" fill="#fff"/>
        <path id="Path_11610" data-name="Path 11610" d="M86.318,249.691V209.784h26.288v6.95h-18.5v9.36h15.75v6.951H94.109v9.7h18.5v6.95Z" transform="translate(-51.506 -142.526)" fill="#fff"/>
        <path id="Path_11611" data-name="Path 11611" d="M150.387,249.691l-2.355-7.062H133.853l-2.411,7.062h-8.127l14.517-39.907h6.109l14.574,39.907Zm-9.3-28.137-5.045,14.517h9.922Z" transform="translate(-57.447 -142.526)" fill="#fff"/>
        <path id="Path_11612" data-name="Path 11612" d="M200.238,249.691V226.43l-7.623,15.134h-5.269l-7.679-15.134v23.261h-7.791V209.784h7.679l10.425,21.579,10.37-21.579h7.678v39.907Z" transform="translate(-65.245 -142.526)" fill="#fff"/>
        <path id="Path_11613" data-name="Path 11613" d="M236.607,249.963c-6.053,0-10.649-1.289-14.572-5.268l5.045-5.045c2.522,2.522,5.941,3.363,9.64,3.363,4.6,0,7.062-1.738,7.062-4.932a4.443,4.443,0,0,0-1.233-3.364,5.943,5.943,0,0,0-3.531-1.4l-4.82-.673c-3.419-.5-5.941-1.569-7.735-3.306a10.551,10.551,0,0,1-2.858-7.847c0-7.118,5.269-12.107,13.9-12.107,5.493,0,9.473,1.346,12.892,4.652l-4.932,4.877c-2.522-2.411-5.549-2.747-8.183-2.747-4.148,0-6.166,2.3-6.166,5.044a3.854,3.854,0,0,0,1.177,2.859,6.861,6.861,0,0,0,3.7,1.569l4.708.672c3.643.5,5.941,1.513,7.623,3.083,2.13,2.018,3.082,4.932,3.082,8.463C251.4,245.591,244.959,249.963,236.607,249.963Z" transform="translate(-73.3 -142.462)" fill="#fff"/>
        <path id="Path_11614" data-name="Path 11614" d="M311.757,249.691V226.43l-7.623,15.134h-5.268l-7.68-15.134v23.261H283.4V209.784h7.68L301.5,231.363l10.369-21.579h7.679v39.907Z" transform="translate(-83.154 -142.526)" fill="#fff"/>
        <path id="Path_11615" data-name="Path 11615" d="M336.953,249.691V209.784H363.24v6.95h-18.5v9.36h15.751v6.951H344.744v9.7h18.5v6.95Z" transform="translate(-91.754 -142.526)" fill="#fff"/>
        <path id="Path_11616" data-name="Path 11616" d="M376.848,249.691V209.784h26.288v6.95h-18.5v9.36h15.75v6.951h-15.75v9.7h18.5v6.95Z" transform="translate(-98.161 -142.526)" fill="#fff"/>
        <path id="Path_11617" data-name="Path 11617" d="M432.823,216.734v32.958h-7.791V216.734H414.607v-6.95h28.642v6.95Z" transform="translate(-104.224 -142.526)" fill="#fff"/>
        <path id="Path_11618" data-name="Path 11618" d="M456.079,249.691V209.784h7.791v39.907Z" transform="translate(-110.884 -142.526)" fill="#fff"/>
        <path id="Path_11619" data-name="Path 11619" d="M499.279,249.691,483.472,225.2v24.494h-7.792V209.784h6.951l15.805,24.438V209.784h7.792v39.907Z" transform="translate(-114.032 -142.526)" fill="#fff"/>
        <path id="Path_11620" data-name="Path 11620" d="M547.129,245.423a14.96,14.96,0,0,1-11.266,4.54,14.625,14.625,0,0,1-10.762-4.372,11.546,11.546,0,0,1-3.25-6,54.454,54.454,0,0,1-.673-9.921,54.447,54.447,0,0,1,.673-9.921,11.346,11.346,0,0,1,3.25-6,14.631,14.631,0,0,1,10.762-4.372c9.08,0,13.957,5.83,15.021,12.779h-7.848c-.952-3.867-3.306-5.829-7.174-5.829a6.357,6.357,0,0,0-4.989,2.13c-1.457,1.85-1.905,3.307-1.905,11.21,0,7.847.336,9.416,1.905,11.266a6.164,6.164,0,0,0,4.989,2.074,7.185,7.185,0,0,0,5.549-2.242,7.848,7.848,0,0,0,1.794-5.325v-1.513h-7.343v-6.5h15.078v5.831C550.941,239.089,549.876,242.508,547.129,245.423Z" transform="translate(-121.338 -142.462)" fill="#fff"/>
      </g>
      <g id="Group_26148" data-name="Group 26148" transform="translate(97.304 36.906)">
        <path id="Path_11621" data-name="Path 11621" d="M123.581,57.515l-2.45-5.005h-1.762v5.005h-2.449V44.966h4.916a3.8,3.8,0,0,1,4.072,3.843,3.379,3.379,0,0,1-2.292,3.295l2.8,5.412Zm-1.9-10.363h-2.309v3.313h2.309a1.661,1.661,0,1,0,0-3.313Z" transform="translate(-116.919 -44.966)" fill="#fff"/>
        <path id="Path_11622" data-name="Path 11622" d="M130.919,57.515V44.966h8.266v2.186h-5.815V50.1h4.952v2.185h-4.952v3.049h5.815v2.186Z" transform="translate(-119.167 -44.966)" fill="#fff"/>
        <path id="Path_11623" data-name="Path 11623" d="M152.729,57.515V50.2l-2.4,4.759h-1.657L146.26,50.2v7.315h-2.449V44.966h2.414l3.279,6.785,3.26-6.785h2.414V57.515Z" transform="translate(-121.237 -44.966)" fill="#fff"/>
        <path id="Path_11624" data-name="Path 11624" d="M161,57.515V44.966h2.45V57.515Z" transform="translate(-123.997 -44.966)" fill="#fff"/>
        <path id="Path_11625" data-name="Path 11625" d="M174.933,57.515l-4.97-7.7v7.7h-2.449V44.966H169.7l4.97,7.685V44.966h2.449V57.515Z" transform="translate(-125.044 -44.966)" fill="#fff"/>
        <path id="Path_11626" data-name="Path 11626" d="M190.438,56.317a4.569,4.569,0,0,1-3.313,1.2h-4.53V44.966h4.53a4.569,4.569,0,0,1,3.313,1.2c1.41,1.41,1.269,3.137,1.269,5.023S191.849,54.906,190.438,56.317Zm-1.71-8.389a2.187,2.187,0,0,0-1.832-.776h-1.851v8.178H186.9a2.187,2.187,0,0,0,1.832-.776c.458-.564.529-1.463.529-3.366S189.187,48.492,188.729,47.927Z" transform="translate(-127.466 -44.966)" fill="#fff"/>
        <path id="Path_11627" data-name="Path 11627" d="M196.617,57.515V44.966h8.267v2.186h-5.816V50.1h4.952v2.185h-4.952v3.049h5.816v2.186Z" transform="translate(-129.717 -44.966)" fill="#fff"/>
        <path id="Path_11628" data-name="Path 11628" d="M216.167,57.515l-2.449-5.005h-1.762v5.005H209.5V44.966h4.917a3.794,3.794,0,0,1,4.071,3.843A3.377,3.377,0,0,1,216.2,52.1l2.8,5.412Zm-1.9-10.363h-2.308v3.313h2.308a1.661,1.661,0,1,0,0-3.313Z" transform="translate(-131.787 -44.966)" fill="#fff"/>
      </g>
    </g>
  </g>
</svg>
